<?xml version="1.0" encoding="UTF-8" standalone="no"?>
<!DOCTYPE svg PUBLIC "-//W3C//DTD SVG 1.1//EN"
 "http://www.w3.org/Graphics/SVG/1.1/DTD/svg11.dtd">
<!-- Generated by graphviz version 2.47.0 (20210316.0004)
 -->
<!-- Title: dependencies Pages: 1 -->
<svg width="504pt" height="284pt"
 viewBox="0.00 0.00 504.00 284.00" xmlns="http://www.w3.org/2000/svg" xmlns:xlink="http://www.w3.org/1999/xlink">
<g id="graph0" class="graph" transform="scale(1 1) rotate(0) translate(4 280)">
<title>dependencies</title>
<polygon fill="white" stroke="transparent" points="-4,4 -4,-280 500,-280 500,4 -4,4"/>
<text text-anchor="start" x="227.01" y="-42.4" font-family="Times-12" font-weight="bold" font-size="14.00">Legend</text>
<polygon fill="#ffffb3" stroke="transparent" points="14,-10 14,-30 34,-30 34,-10 14,-10"/>
<text text-anchor="start" x="37.63" y="-15.4" font-family="Times-12" font-size="14.00"> &#160;Declarations</text>
<polygon fill="#8dd3c7" stroke="transparent" points="127,-10 127,-30 147,-30 147,-10 127,-10"/>
<text text-anchor="start" x="150.73" y="-15.4" font-family="Times-12" font-size="14.00"> &#160;Module</text>
<polygon fill="#80b1d3" stroke="transparent" points="213,-10 213,-30 233,-30 233,-10 213,-10"/>
<text text-anchor="start" x="236.78" y="-15.4" font-family="Times-12" font-size="14.00"> &#160;Bootstrap</text>
<polygon fill="#fdb462" stroke="transparent" points="310,-10 310,-30 330,-30 330,-10 310,-10"/>
<text text-anchor="start" x="333.67" y="-15.4" font-family="Times-12" font-size="14.00"> &#160;Providers</text>
<polygon fill="#fb8072" stroke="transparent" points="406,-10 406,-30 426,-30 426,-10 406,-10"/>
<text text-anchor="start" x="429.73" y="-15.4" font-family="Times-12" font-size="14.00"> &#160;Exports</text>
<g id="clust1" class="cluster">
<title>cluster_AuthModule</title>
<polygon fill="none" stroke="black" stroke-dasharray="1,5" points="115,-70 115,-268 381,-268 381,-70 115,-70"/>
</g>
<g id="clust4" class="cluster">
<title>cluster_AuthModule_exports</title>
<polygon fill="none" stroke="black" points="139,-208 139,-260 357,-260 357,-208 139,-208"/>
</g>
<g id="clust6" class="cluster">
<title>cluster_AuthModule_providers</title>
<polygon fill="none" stroke="black" points="239,-78 239,-130 373,-130 373,-78 239,-78"/>
</g>
<g id="clust3" class="cluster">
<title>cluster_AuthModule_imports</title>
<polygon fill="none" stroke="black" points="123,-78 123,-130 231,-130 231,-78 123,-78"/>
</g>
<!-- UsersModule -->
<g id="node1" class="node">
<title>UsersModule</title>
<polygon fill="#8dd3c7" stroke="black" points="222.92,-122 219.92,-126 198.92,-126 195.92,-122 131.08,-122 131.08,-86 222.92,-86 222.92,-122"/>
<text text-anchor="middle" x="177" y="-99.8" font-family="Times,serif" font-size="14.00">UsersModule</text>
</g>
<!-- AuthModule -->
<g id="node2" class="node">
<title>AuthModule</title>
<polygon fill="#8dd3c7" stroke="black" points="292.55,-187 289.55,-191 268.55,-191 265.55,-187 205.45,-187 205.45,-151 292.55,-151 292.55,-187"/>
<text text-anchor="middle" x="249" y="-164.8" font-family="Times,serif" font-size="14.00">AuthModule</text>
</g>
<!-- UsersModule&#45;&gt;AuthModule -->
<g id="edge1" class="edge">
<title>UsersModule&#45;&gt;AuthModule</title>
<path fill="none" stroke="black" d="M213.97,-122.11C213.97,-122.11 213.97,-140.99 213.97,-140.99"/>
<polygon fill="black" stroke="black" points="210.47,-140.99 213.97,-150.99 217.47,-140.99 210.47,-140.99"/>
</g>
<!-- AuthService  -->
<g id="node3" class="node">
<title>AuthService </title>
<polygon fill="#fb8072" stroke="black" points="348.98,-252 259.02,-252 259.02,-216 348.98,-216 348.98,-252"/>
<text text-anchor="middle" x="304" y="-229.8" font-family="Times,serif" font-size="14.00">AuthService </text>
</g>
<!-- AuthModule&#45;&gt;AuthService  -->
<g id="edge2" class="edge">
<title>AuthModule&#45;&gt;AuthService </title>
<path fill="none" stroke="black" stroke-dasharray="5,2" d="M276.02,-187.11C276.02,-187.11 276.02,-205.99 276.02,-205.99"/>
<polygon fill="black" stroke="black" points="272.52,-205.99 276.02,-215.99 279.52,-205.99 272.52,-205.99"/>
</g>
<!-- UsersModule  -->
<g id="node4" class="node">
<title>UsersModule </title>
<polygon fill="#fb8072" stroke="black" points="241.42,-252 146.58,-252 146.58,-216 241.42,-216 241.42,-252"/>
<text text-anchor="middle" x="194" y="-229.8" font-family="Times,serif" font-size="14.00">UsersModule </text>
</g>
<!-- AuthModule&#45;&gt;UsersModule  -->
<g id="edge3" class="edge">
<title>AuthModule&#45;&gt;UsersModule </title>
<path fill="none" stroke="black" stroke-dasharray="5,2" d="M223.34,-187.11C223.34,-187.11 223.34,-205.99 223.34,-205.99"/>
<polygon fill="black" stroke="black" points="219.84,-205.99 223.34,-215.99 226.84,-205.99 219.84,-205.99"/>
</g>
<!-- AuthService -->
<g id="node5" class="node">
<title>AuthService</title>
<ellipse fill="#fdb462" stroke="black" cx="306" cy="-104" rx="59.11" ry="18"/>
<text text-anchor="middle" x="306" y="-99.8" font-family="Times,serif" font-size="14.00">AuthService</text>
</g>
<!-- AuthService&#45;&gt;AuthModule -->
<g id="edge4" class="edge">
<title>AuthService&#45;&gt;AuthModule</title>
<path fill="none" stroke="black" d="M269.73,-118.43C269.73,-118.43 269.73,-140.89 269.73,-140.89"/>
<polygon fill="black" stroke="black" points="266.23,-140.89 269.73,-150.89 273.23,-140.89 266.23,-140.89"/>
</g>
</g>
</svg>
