<?xml version="1.0" encoding="UTF-8" standalone="no"?>
<!DOCTYPE svg PUBLIC "-//W3C//DTD SVG 1.1//EN"
 "http://www.w3.org/Graphics/SVG/1.1/DTD/svg11.dtd">
<!-- Generated by graphviz version 2.47.0 (20210316.0004)
 -->
<!-- Title: dependencies Pages: 1 -->
<svg width="1761pt" height="306pt"
 viewBox="0.00 0.00 1761.00 306.00" xmlns="http://www.w3.org/2000/svg" xmlns:xlink="http://www.w3.org/1999/xlink">
<g id="graph0" class="graph" transform="scale(1 1) rotate(0) translate(4 302)">
<title>dependencies</title>
<polygon fill="white" stroke="transparent" points="-4,4 -4,-302 1757,-302 1757,4 -4,4"/>
<text text-anchor="start" x="855.51" y="-42.4" font-family="Times-12" font-weight="bold" font-size="14.00">Legend</text>
<polygon fill="#ffffb3" stroke="transparent" points="642.5,-10 642.5,-30 662.5,-30 662.5,-10 642.5,-10"/>
<text text-anchor="start" x="666.13" y="-15.4" font-family="Times-12" font-size="14.00"> &#160;Declarations</text>
<polygon fill="#8dd3c7" stroke="transparent" points="755.5,-10 755.5,-30 775.5,-30 775.5,-10 755.5,-10"/>
<text text-anchor="start" x="779.23" y="-15.4" font-family="Times-12" font-size="14.00"> &#160;Module</text>
<polygon fill="#80b1d3" stroke="transparent" points="841.5,-10 841.5,-30 861.5,-30 861.5,-10 841.5,-10"/>
<text text-anchor="start" x="865.28" y="-15.4" font-family="Times-12" font-size="14.00"> &#160;Bootstrap</text>
<polygon fill="#fdb462" stroke="transparent" points="938.5,-10 938.5,-30 958.5,-30 958.5,-10 938.5,-10"/>
<text text-anchor="start" x="962.17" y="-15.4" font-family="Times-12" font-size="14.00"> &#160;Providers</text>
<polygon fill="#fb8072" stroke="transparent" points="1034.5,-10 1034.5,-30 1054.5,-30 1054.5,-10 1034.5,-10"/>
<text text-anchor="start" x="1058.23" y="-15.4" font-family="Times-12" font-size="14.00"> &#160;Exports</text>
<g id="clust1" class="cluster">
<title>cluster_AppModule</title>
<polygon fill="none" stroke="black" stroke-dasharray="1,5" points="162,-70 162,-282 536,-282 536,-70 162,-70"/>
</g>
<g id="clust3" class="cluster">
<title>cluster_AppModule_imports</title>
<polygon fill="none" stroke="black" points="322,-78 322,-206 528,-206 528,-78 322,-78"/>
</g>
<g id="clust6" class="cluster">
<title>cluster_AppModule_providers</title>
<polygon fill="none" stroke="black" points="170,-154 170,-206 300,-206 300,-154 170,-154"/>
</g>
<g id="clust7" class="cluster">
<title>cluster_AuthModule</title>
<polygon fill="none" stroke="black" stroke-dasharray="1,5" points="544,-222 544,-290 920,-290 920,-222 544,-222"/>
</g>
<g id="clust10" class="cluster">
<title>cluster_AuthModule_exports</title>
<polygon fill="none" stroke="black" points="694,-230 694,-282 912,-282 912,-230 694,-230"/>
</g>
<g id="clust12" class="cluster">
<title>cluster_AuthModule_providers</title>
<polygon fill="none" stroke="black" points="552,-230 552,-282 686,-282 686,-230 552,-230"/>
</g>
<g id="clust13" class="cluster">
<title>cluster_PostModule</title>
<polygon fill="none" stroke="black" stroke-dasharray="1,5" points="8,-70 8,-138 154,-138 154,-70 8,-70"/>
</g>
<g id="clust18" class="cluster">
<title>cluster_PostModule_providers</title>
<polygon fill="none" stroke="black" points="16,-78 16,-130 146,-130 146,-78 16,-78"/>
</g>
<g id="clust19" class="cluster">
<title>cluster_TemplatePlaygroundModule</title>
<polygon fill="none" stroke="black" stroke-dasharray="1,5" points="928,-70 928,-290 1745,-290 1745,-70 928,-70"/>
</g>
<g id="clust20" class="cluster">
<title>cluster_TemplatePlaygroundModule_declarations</title>
<polygon fill="none" stroke="black" points="1523,-78 1523,-130 1737,-130 1737,-78 1523,-78"/>
</g>
<g id="clust24" class="cluster">
<title>cluster_TemplatePlaygroundModule_bootstrap</title>
<polygon fill="none" stroke="black" points="1214,-230 1214,-282 1432,-282 1432,-230 1214,-230"/>
</g>
<g id="clust25" class="cluster">
<title>cluster_TemplatePlaygroundModule_providers</title>
<polygon fill="none" stroke="black" points="936,-78 936,-130 1515,-130 1515,-78 936,-78"/>
</g>
<g id="clust26" class="cluster">
<title>cluster_UsersModule</title>
<polygon fill="none" stroke="black" stroke-dasharray="1,5" points="544,-146 544,-214 818,-214 818,-146 544,-146"/>
</g>
<g id="clust29" class="cluster">
<title>cluster_UsersModule_exports</title>
<polygon fill="none" stroke="black" points="700,-154 700,-206 810,-206 810,-154 700,-154"/>
</g>
<g id="clust31" class="cluster">
<title>cluster_UsersModule_providers</title>
<polygon fill="none" stroke="black" points="552,-154 552,-206 692,-206 692,-154 552,-154"/>
</g>
<!-- AuthModule -->
<g id="node1" class="node">
<title>AuthModule</title>
<polygon fill="#8dd3c7" stroke="black" points="519.55,-198 516.55,-202 495.55,-202 492.55,-198 432.45,-198 432.45,-162 519.55,-162 519.55,-198"/>
<text text-anchor="middle" x="476" y="-175.8" font-family="Times,serif" font-size="14.00">AuthModule</text>
</g>
<!-- AppModule -->
<g id="node4" class="node">
<title>AppModule</title>
<polygon fill="#8dd3c7" stroke="black" points="382.66,-274 379.66,-278 358.66,-278 355.66,-274 299.34,-274 299.34,-238 382.66,-238 382.66,-274"/>
<text text-anchor="middle" x="341" y="-251.8" font-family="Times,serif" font-size="14.00">AppModule</text>
</g>
<!-- AuthModule&#45;&gt;AppModule -->
<g id="edge1" class="edge">
<title>AuthModule&#45;&gt;AppModule</title>
<path fill="none" stroke="black" d="M484.75,-198.2C484.75,-222.36 484.75,-262 484.75,-262 484.75,-262 392.97,-262 392.97,-262"/>
<polygon fill="black" stroke="black" points="392.97,-258.5 382.97,-262 392.97,-265.5 392.97,-258.5"/>
</g>
<!-- AuthService  -->
<g id="node6" class="node">
<title>AuthService </title>
<polygon fill="#fb8072" stroke="black" points="903.98,-274 814.02,-274 814.02,-238 903.98,-238 903.98,-274"/>
<text text-anchor="middle" x="859" y="-251.8" font-family="Times,serif" font-size="14.00">AuthService </text>
</g>
<!-- AuthModule&#45;&gt;AuthService  -->
<g id="edge6" class="edge">
<title>AuthModule&#45;&gt;AuthService </title>
<path fill="none" stroke="black" stroke-dasharray="5,2" d="M467.25,-198.24C467.25,-205.43 467.25,-212 467.25,-212 467.25,-212 859,-212 859,-212 859,-212 859,-227.85 859,-227.85"/>
<polygon fill="black" stroke="black" points="855.5,-227.85 859,-237.85 862.5,-227.85 855.5,-227.85"/>
</g>
<!-- UsersModule  -->
<g id="node7" class="node">
<title>UsersModule </title>
<polygon fill="#fb8072" stroke="black" points="796.42,-274 701.58,-274 701.58,-238 796.42,-238 796.42,-274"/>
<text text-anchor="middle" x="749" y="-251.8" font-family="Times,serif" font-size="14.00">UsersModule </text>
</g>
<!-- AuthModule&#45;&gt;UsersModule  -->
<g id="edge7" class="edge">
<title>AuthModule&#45;&gt;UsersModule </title>
<path fill="none" stroke="black" stroke-dasharray="5,2" d="M449.74,-198.04C449.74,-210.56 449.74,-225 449.74,-225 449.74,-225 752.39,-225 752.39,-225 752.39,-225 752.39,-227.97 752.39,-227.97"/>
<polygon fill="black" stroke="black" points="748.89,-227.97 752.39,-237.97 755.89,-227.97 748.89,-227.97"/>
</g>
<!-- PostModule -->
<g id="node2" class="node">
<title>PostModule</title>
<polygon fill="#8dd3c7" stroke="black" points="413.67,-198 410.67,-202 389.67,-202 386.67,-198 330.33,-198 330.33,-162 413.67,-162 413.67,-198"/>
<text text-anchor="middle" x="372" y="-175.8" font-family="Times,serif" font-size="14.00">PostModule</text>
</g>
<!-- PostModule&#45;&gt;AppModule -->
<g id="edge2" class="edge">
<title>PostModule&#45;&gt;AppModule</title>
<path fill="none" stroke="black" d="M356.5,-198.01C356.5,-198.01 356.5,-227.85 356.5,-227.85"/>
<polygon fill="black" stroke="black" points="353,-227.85 356.5,-237.85 360,-227.85 353,-227.85"/>
</g>
<!-- UsersModule -->
<g id="node3" class="node">
<title>UsersModule</title>
<polygon fill="#8dd3c7" stroke="black" points="519.92,-122 516.92,-126 495.92,-126 492.92,-122 428.08,-122 428.08,-86 519.92,-86 519.92,-122"/>
<text text-anchor="middle" x="474" y="-99.8" font-family="Times,serif" font-size="14.00">UsersModule</text>
</g>
<!-- UsersModule&#45;&gt;AuthModule -->
<g id="edge5" class="edge">
<title>UsersModule&#45;&gt;AuthModule</title>
<path fill="none" stroke="black" d="M475.97,-122.01C475.97,-122.01 475.97,-151.85 475.97,-151.85"/>
<polygon fill="black" stroke="black" points="472.47,-151.85 475.97,-161.85 479.47,-151.85 472.47,-151.85"/>
</g>
<!-- UsersModule&#45;&gt;PostModule -->
<g id="edge9" class="edge">
<title>UsersModule&#45;&gt;PostModule</title>
<path fill="none" stroke="black" d="M428.17,-113C406.77,-113 385.94,-113 385.94,-113 385.94,-113 385.94,-151.69 385.94,-151.69"/>
<polygon fill="black" stroke="black" points="382.44,-151.69 385.94,-161.69 389.44,-151.69 382.44,-151.69"/>
</g>
<!-- UsersModule&#45;&gt;AppModule -->
<g id="edge3" class="edge">
<title>UsersModule&#45;&gt;AppModule</title>
<path fill="none" stroke="black" d="M428.16,-104C382.72,-104 319.83,-104 319.83,-104 319.83,-104 319.83,-227.97 319.83,-227.97"/>
<polygon fill="black" stroke="black" points="316.33,-227.97 319.83,-237.97 323.33,-227.97 316.33,-227.97"/>
</g>
<!-- UsersService  -->
<g id="node16" class="node">
<title>UsersService </title>
<polygon fill="#fb8072" stroke="black" points="801.85,-198 708.15,-198 708.15,-162 801.85,-162 801.85,-198"/>
<text text-anchor="middle" x="755" y="-175.8" font-family="Times,serif" font-size="14.00">UsersService </text>
</g>
<!-- UsersModule&#45;&gt;UsersService  -->
<g id="edge16" class="edge">
<title>UsersModule&#45;&gt;UsersService </title>
<path fill="none" stroke="black" stroke-dasharray="5,2" d="M519.77,-98C599.4,-98 755,-98 755,-98 755,-98 755,-151.8 755,-151.8"/>
<polygon fill="black" stroke="black" points="751.5,-151.8 755,-161.8 758.5,-151.8 751.5,-151.8"/>
</g>
<!-- AppService -->
<g id="node5" class="node">
<title>AppService</title>
<ellipse fill="#fdb462" stroke="black" cx="235" cy="-180" rx="56.74" ry="18"/>
<text text-anchor="middle" x="235" y="-175.8" font-family="Times,serif" font-size="14.00">AppService</text>
</g>
<!-- AppService&#45;&gt;AppModule -->
<g id="edge4" class="edge">
<title>AppService&#45;&gt;AppModule</title>
<path fill="none" stroke="black" d="M291.85,-180C302.04,-180 309.5,-180 309.5,-180 309.5,-180 309.5,-227.99 309.5,-227.99"/>
<polygon fill="black" stroke="black" points="306,-227.99 309.5,-237.99 313,-227.99 306,-227.99"/>
</g>
<!-- AuthService -->
<g id="node8" class="node">
<title>AuthService</title>
<ellipse fill="#fdb462" stroke="black" cx="619" cy="-256" rx="59.11" ry="18"/>
<text text-anchor="middle" x="619" y="-251.8" font-family="Times,serif" font-size="14.00">AuthService</text>
</g>
<!-- AuthService&#45;&gt;AuthModule -->
<g id="edge8" class="edge">
<title>AuthService&#45;&gt;AuthModule</title>
<path fill="none" stroke="black" d="M563.03,-250C533.07,-250 502.26,-250 502.26,-250 502.26,-250 502.26,-208.03 502.26,-208.03"/>
<polygon fill="black" stroke="black" points="505.76,-208.03 502.26,-198.03 498.76,-208.03 505.76,-208.03"/>
</g>
<!-- PostService -->
<g id="node9" class="node">
<title>PostService</title>
<ellipse fill="#fdb462" stroke="black" cx="81" cy="-104" rx="56.76" ry="18"/>
<text text-anchor="middle" x="81" y="-99.8" font-family="Times,serif" font-size="14.00">PostService</text>
</g>
<!-- PostService&#45;&gt;PostModule -->
<g id="edge10" class="edge">
<title>PostService&#45;&gt;PostModule</title>
<path fill="none" stroke="black" d="M130.21,-95C209.83,-95 358.06,-95 358.06,-95 358.06,-95 358.06,-151.97 358.06,-151.97"/>
<polygon fill="black" stroke="black" points="354.56,-151.97 358.06,-161.97 361.56,-151.97 354.56,-151.97"/>
</g>
<!-- TemplatePlaygroundComponent -->
<g id="node10" class="node">
<title>TemplatePlaygroundComponent</title>
<polygon fill="#ffffb3" stroke="black" points="1729.25,-122 1530.75,-122 1530.75,-86 1729.25,-86 1729.25,-122"/>
<text text-anchor="middle" x="1630" y="-99.8" font-family="Times,serif" font-size="14.00">TemplatePlaygroundComponent</text>
</g>
<!-- TemplatePlaygroundModule -->
<g id="node11" class="node">
<title>TemplatePlaygroundModule</title>
<polygon fill="#8dd3c7" stroke="black" points="1411.47,-198 1408.47,-202 1387.47,-202 1384.47,-198 1234.53,-198 1234.53,-162 1411.47,-162 1411.47,-198"/>
<text text-anchor="middle" x="1323" y="-175.8" font-family="Times,serif" font-size="14.00">TemplatePlaygroundModule</text>
</g>
<!-- TemplatePlaygroundComponent&#45;&gt;TemplatePlaygroundModule -->
<g id="edge11" class="edge">
<title>TemplatePlaygroundComponent&#45;&gt;TemplatePlaygroundModule</title>
<path fill="none" stroke="black" d="M1630,-122.01C1630,-144.49 1630,-180 1630,-180 1630,-180 1421.8,-180 1421.8,-180"/>
<polygon fill="black" stroke="black" points="1421.8,-176.5 1411.8,-180 1421.8,-183.5 1421.8,-176.5"/>
</g>
<!-- TemplatePlaygroundComponent  -->
<g id="node12" class="node">
<title>TemplatePlaygroundComponent </title>
<polygon fill="#80b1d3" stroke="black" points="1424.25,-274 1221.75,-274 1221.75,-238 1424.25,-238 1424.25,-274"/>
<text text-anchor="middle" x="1323" y="-251.8" font-family="Times,serif" font-size="14.00">TemplatePlaygroundComponent </text>
</g>
<!-- TemplatePlaygroundModule&#45;&gt;TemplatePlaygroundComponent  -->
<g id="edge12" class="edge">
<title>TemplatePlaygroundModule&#45;&gt;TemplatePlaygroundComponent </title>
<path fill="none" stroke="black" stroke-dasharray="1,5" d="M1323,-198.01C1323,-198.01 1323,-227.85 1323,-227.85"/>
<polygon fill="black" stroke="black" points="1319.5,-227.85 1323,-237.85 1326.5,-227.85 1319.5,-227.85"/>
</g>
<!-- HbsRenderService -->
<g id="node13" class="node">
<title>HbsRenderService</title>
<ellipse fill="#fdb462" stroke="black" cx="1424" cy="-104" rx="83.37" ry="18"/>
<text text-anchor="middle" x="1424" y="-99.8" font-family="Times,serif" font-size="14.00">HbsRenderService</text>
</g>
<!-- HbsRenderService&#45;&gt;TemplatePlaygroundModule -->
<g id="edge13" class="edge">
<title>HbsRenderService&#45;&gt;TemplatePlaygroundModule</title>
<path fill="none" stroke="black" d="M1376.03,-119.02C1376.03,-119.02 1376.03,-151.8 1376.03,-151.8"/>
<polygon fill="black" stroke="black" points="1372.53,-151.8 1376.03,-161.8 1379.53,-151.8 1372.53,-151.8"/>
</g>
<!-- TemplateEditorService -->
<g id="node14" class="node">
<title>TemplateEditorService</title>
<ellipse fill="#fdb462" stroke="black" cx="1222" cy="-104" rx="100.7" ry="18"/>
<text text-anchor="middle" x="1222" y="-99.8" font-family="Times,serif" font-size="14.00">TemplateEditorService</text>
</g>
<!-- TemplateEditorService&#45;&gt;TemplatePlaygroundModule -->
<g id="edge14" class="edge">
<title>TemplateEditorService&#45;&gt;TemplatePlaygroundModule</title>
<path fill="none" stroke="black" d="M1278.56,-119.02C1278.56,-119.02 1278.56,-151.8 1278.56,-151.8"/>
<polygon fill="black" stroke="black" points="1275.06,-151.8 1278.56,-161.8 1282.06,-151.8 1275.06,-151.8"/>
</g>
<!-- ZipExportService -->
<g id="node15" class="node">
<title>ZipExportService</title>
<ellipse fill="#fdb462" stroke="black" cx="1024" cy="-104" rx="79.87" ry="18"/>
<text text-anchor="middle" x="1024" y="-99.8" font-family="Times,serif" font-size="14.00">ZipExportService</text>
</g>
<!-- ZipExportService&#45;&gt;TemplatePlaygroundModule -->
<g id="edge15" class="edge">
<title>ZipExportService&#45;&gt;TemplatePlaygroundModule</title>
<path fill="none" stroke="black" d="M1024,-122.01C1024,-144.49 1024,-180 1024,-180 1024,-180 1224.5,-180 1224.5,-180"/>
<polygon fill="black" stroke="black" points="1224.5,-183.5 1234.5,-180 1224.5,-176.5 1224.5,-183.5"/>
</g>
<!-- UsersService -->
<g id="node17" class="node">
<title>UsersService</title>
<ellipse fill="#fdb462" stroke="black" cx="622" cy="-180" rx="61.95" ry="18"/>
<text text-anchor="middle" x="622" y="-175.8" font-family="Times,serif" font-size="14.00">UsersService</text>
</g>
<!-- UsersService&#45;&gt;UsersModule -->
<g id="edge17" class="edge">
<title>UsersService&#45;&gt;UsersModule</title>
<path fill="none" stroke="black" d="M622,-161.97C622,-141.23 622,-110 622,-110 622,-110 530.02,-110 530.02,-110"/>
<polygon fill="black" stroke="black" points="530.02,-106.5 520.02,-110 530.02,-113.5 530.02,-106.5"/>
</g>
</g>
</svg>
